<?xml version="1.0" encoding="utf-8"?>
<!-- Generator: Adobe Illustrator 23.1.0, SVG Export Plug-In . SVG Version: 6.00 Build 0)  -->
<svg version="1.1" id="Layer_1" xmlns="http://www.w3.org/2000/svg" xmlns:xlink="http://www.w3.org/1999/xlink" x="0px" y="0px"
	 viewBox="0 0 40 40" style="enable-background:new 0 0 40 40;" xml:space="preserve">
<g>
	<g>
		<path d="M19.2,25.3L19.2,25.3L12,21.9v9.6c2.5,1,5.3,1.6,8,1.6c5.2,0,10.4-1.9,14.5-5.8c0.1-0.1,0.2-0.2,0.2-0.4v-8.2l-13.9,6.5
			C20.3,25.5,19.7,25.5,19.2,25.3z"/>
		<path d="M39.6,14l-4.9-2.3L20.2,4.8c-0.1-0.1-0.3-0.1-0.5,0L5.3,11.6L0.4,14c-0.2,0.1-0.3,0.3-0.3,0.5c0,0.2,0.1,0.4,0.3,0.5
			l4.9,2.3v9.7c0,0.2,0.1,0.3,0.2,0.4c1,1,2.2,1.8,3.3,2.5v3.3c0,0.5,0.4,0.9,0.9,0.9c0.3,0,0.5-0.1,0.7-0.3
			c0.2-0.2,0.3-0.4,0.3-0.7v-2.2V19.7l9.3-5l1.3,0.7l-9.3,5l0.4,0.2l7.3,3.5c0.1,0,0.2,0.1,0.2,0.1s0.2,0,0.2-0.1l10.3-4.8l4.2-2
			l4.9-2.3c0.2-0.1,0.3-0.3,0.3-0.5C39.9,14.2,39.8,14,39.6,14z"/>
	</g>
</g>
</svg>
